<svg width="91" height="57" viewBox="0 0 91 57" fill="none" xmlns="http://www.w3.org/2000/svg">
<g id="PRHolding logo" clip-path="url(#clip0_5736_2604)">
<g id="Vector">
<path fill-rule="evenodd" clip-rule="evenodd" d="M61.2374 18.53C62.4185 18.131 63.5995 18.3752 63.8298 19.078C64.0601 19.7808 63.2807 20.6802 62.0583 21.0792C60.8359 21.4783 59.6962 21.2401 59.4659 20.5372C59.2356 19.8344 60.0151 18.935 61.2374 18.53Z" fill="#E3051E"/>
<path fill-rule="evenodd" clip-rule="evenodd" d="M67.2551 16.7373C68.4361 16.3382 69.6172 16.5824 69.8416 17.2852C70.066 17.988 69.2924 18.8815 68.07 19.2865C66.8476 19.6915 65.7079 19.4413 65.4776 18.7385C65.2473 18.0357 66.0327 17.1423 67.2492 16.7373" fill="#E3051E"/>
<path fill-rule="evenodd" clip-rule="evenodd" d="M70.3609 19.0958C71.542 18.6908 72.723 18.935 72.9533 19.6378C73.1836 20.3406 72.3982 21.24 71.1818 21.6391C69.9653 22.0381 68.8197 21.7999 68.5953 21.097C68.3709 20.3942 69.1444 19.4949 70.3668 19.0958" fill="#E3051E"/>
<path fill-rule="evenodd" clip-rule="evenodd" d="M67.7687 22.8304C68.9498 22.4254 70.1308 22.6696 70.3552 23.3724C70.5796 24.0752 69.806 24.9746 68.5837 25.3736C67.3613 25.7727 66.2216 25.5345 65.9913 24.8316C65.7609 24.1288 66.5463 23.2294 67.7628 22.8304" fill="#E3051E"/>
<path fill-rule="evenodd" clip-rule="evenodd" d="M61.8281 24.5755C63.0092 24.1705 64.1902 24.4147 64.4146 25.1175C64.639 25.8203 63.8654 26.7197 62.643 27.1187C61.4207 27.5178 60.2809 27.2795 60.0506 26.5767C59.8203 25.8739 60.6057 24.9745 61.8222 24.5755" fill="#E3051E"/>
<path fill-rule="evenodd" clip-rule="evenodd" d="M58.6212 22.193C59.8023 21.7939 60.9833 22.0381 61.2077 22.741C61.4321 23.4438 60.6585 24.3372 59.4361 24.7422C58.2138 25.1472 57.074 24.8971 56.8437 24.1943C56.6134 23.4914 57.3988 22.598 58.6153 22.193" fill="#E3051E"/>
<path fill-rule="evenodd" clip-rule="evenodd" d="M35.4849 3.57422C61.9463 -4.04961 86.5654 0.953527 90.4746 14.73C94.3839 28.5065 76.0953 45.8626 49.6339 53.4447C31.9181 58.5432 14.9995 57.9773 4.59448 52.9027C16.1983 55.9523 32.6917 55.5949 46.8289 51.5269C70.2137 44.7905 86.3941 29.4476 82.9218 17.2494C81.3864 11.8294 76.243 7.94005 68.95 5.88519C52.681 1.30494 32.8275 4.7297 16.3932 11.4422L16.2633 11.4958C22.3471 8.11859 28.797 5.46047 35.4849 3.57422Z" fill="#E3051E"/>
</g>
<path id="Vector_2" d="M65.194 34.5434C64.9047 36.0681 63.7768 37.5214 62.5957 37.5214C61.4147 37.5214 61.1017 36.497 61.1017 35.6333C61.1017 33.6857 62.454 31.6368 64.3968 31.6368C64.8395 31.6315 65.2782 31.7208 65.6842 31.8989L65.194 34.5434ZM59.336 41.4644C60.0602 41.8585 60.8758 42.0498 61.6981 42.0183C62.664 42.0443 63.6084 41.7282 64.3673 41.1249C65.1822 40.4221 65.6192 39.2725 65.9381 37.6108L67.1191 31.1127C66.3341 30.7601 65.4864 30.5717 64.6271 30.5587C61.6213 30.5587 59.6726 33.2092 59.6903 35.8716C59.6903 37.2713 60.4934 38.6054 62.0524 38.6054C62.6173 38.6026 63.1707 38.4448 63.6534 38.149C64.1361 37.8531 64.5299 37.4302 64.7925 36.9258H64.8397L64.5799 38.117C64.1134 40.2493 63.0858 40.9283 61.7808 40.9283C61.0628 40.9386 60.3545 40.76 59.7257 40.4101L59.336 41.4644ZM52.3914 38.6054L53.1001 34.7876C53.4544 32.834 54.8067 31.6785 55.7515 31.6785C56.6964 31.6785 56.9739 32.2741 56.9739 33.0603C56.97 33.3988 56.9324 33.736 56.8617 34.0669L56.0113 38.6054H57.3459L58.214 34.0192C58.2946 33.6028 58.342 33.1806 58.3557 32.7565C58.3557 31.1007 57.3105 30.5647 56.3775 30.5647C55.7924 30.5775 55.2205 30.742 54.7168 31.0424C54.2131 31.3429 53.7946 31.7691 53.5016 32.2801L53.6906 30.7374H52.5095C52.4091 31.3866 52.3147 32.149 52.1375 33.0305L51.0923 38.6054H52.3914ZM49.8817 29.3913C50.001 29.3938 50.1196 29.3719 50.2303 29.3269C50.341 29.282 50.4416 29.215 50.5259 29.1298C50.6103 29.0447 50.6768 28.9433 50.7213 28.8316C50.7659 28.72 50.7876 28.6004 50.7852 28.4801C50.7944 28.3707 50.7806 28.2606 50.7447 28.157C50.7088 28.0534 50.6517 27.9586 50.577 27.8788C50.5023 27.7989 50.4118 27.7359 50.3113 27.6938C50.2108 27.6517 50.1027 27.6314 49.9939 27.6343C49.8766 27.6351 49.7605 27.6593 49.6526 27.7057C49.5446 27.7521 49.4469 27.8196 49.365 27.9044C49.2832 27.9891 49.2188 28.0895 49.1757 28.1996C49.1326 28.3096 49.1117 28.4273 49.114 28.5456C49.1041 28.6531 49.1166 28.7615 49.1508 28.8639C49.1849 28.9662 49.2399 29.0602 49.3122 29.1399C49.3845 29.2195 49.4725 29.2831 49.5706 29.3264C49.6686 29.3697 49.7746 29.3918 49.8817 29.3913ZM48.7006 38.6054L50.1947 30.7374H48.8719L47.372 38.6054H48.7006ZM44.4489 34.7221C44.1123 36.5089 42.8722 37.7001 41.8446 37.7001C40.699 37.7001 40.3801 36.7114 40.3801 35.7703C40.3801 33.6738 41.8269 31.6725 43.693 31.6725C44.1433 31.6581 44.5888 31.7694 44.9803 31.9942L44.4489 34.7221ZM45.8779 27.0625L45.187 30.8327C44.7492 30.6491 44.2793 30.5559 43.8052 30.5587C41.0533 30.5587 38.9983 33.1258 38.9983 35.9192C38.9983 37.5274 39.8191 38.7782 41.3309 38.7782C41.906 38.7574 42.4659 38.5862 42.9556 38.2813C43.4453 37.9764 43.848 37.5483 44.1241 37.039H44.1595L43.9469 38.5995H45.1693C45.2319 37.7632 45.3463 36.9317 45.5118 36.1098L47.242 27.0625H45.8779ZM36.6126 38.6054L38.8034 27.0625H37.4393L35.2662 38.6054H36.6126ZM31.1325 31.6308C32.5321 31.6308 32.9513 32.9174 32.9513 33.8286C32.9513 35.6631 31.7703 37.712 30.1818 37.712C29.042 37.712 28.3511 36.7829 28.3511 35.5023C28.3452 33.6976 29.4613 31.6308 31.1325 31.6308ZM31.2801 30.5587C28.7527 30.5587 26.9693 32.9412 26.9693 35.55C26.9693 37.3368 28.0618 38.7841 30.0046 38.7841C32.6147 38.7841 34.3154 36.2647 34.3154 33.8406C34.3154 32.1609 33.3824 30.5587 31.2979 30.5587H31.2801ZM18.8968 27.6522L16.8182 38.6054H18.1528L19.1212 33.4534H24.1053L23.1427 38.6054H24.4773L26.5736 27.6522H25.1977L24.3297 32.2681H19.3456L20.2314 27.6522H18.8968ZM11.592 28.7719C11.9617 28.6859 12.3407 28.6478 12.7199 28.6587C13.9423 28.6587 14.8104 29.1769 14.8104 30.3503C14.8104 31.6666 13.7179 32.7863 12.029 32.7863H10.848L11.592 28.7719ZM8.40908 38.6054H9.74367L10.6295 33.8406H11.8105C12.8853 33.8406 13.4345 34.4719 13.5112 35.9669C13.552 36.8543 13.6388 37.739 13.7711 38.6174H15.1529C14.9592 37.6358 14.8467 36.6397 14.8163 35.6393C14.7336 34.5017 14.3675 33.6917 13.6352 33.4296V33.3938C14.348 33.2206 14.9851 32.8173 15.4499 32.2454C15.9146 31.6734 16.1815 30.9641 16.2099 30.2252C16.2095 29.8869 16.1377 29.5526 15.9992 29.2445C15.8607 28.9364 15.6588 28.6616 15.4068 28.4384C14.6679 27.8627 13.7461 27.5789 12.8144 27.6402C12.0209 27.6404 11.2294 27.7222 10.4523 27.8844L8.40908 38.6054ZM3.18293 28.7719C3.55259 28.6859 3.93162 28.6478 4.31084 28.6587C5.53322 28.6587 6.4013 29.1769 6.4013 30.3503C6.4013 31.6666 5.30882 32.7863 3.61992 32.7863H2.43887L3.18293 28.7719ZM0 38.6054H1.33459L2.22038 33.8406H3.40143C4.48209 33.8406 5.02537 34.4719 5.10805 35.9669C5.14886 36.8543 5.23559 37.739 5.36788 38.6174H6.74971C6.55607 37.6358 6.44348 36.6397 6.41311 35.6393C6.33043 34.5017 5.9584 33.6917 5.23206 33.4296V33.3938C5.94433 33.2197 6.58095 32.8162 7.04552 32.2444C7.5101 31.6727 7.77732 30.9638 7.80675 30.2252C7.80632 29.8869 7.73448 29.5526 7.59601 29.2445C7.45753 28.9364 7.25559 28.6616 7.00363 28.4384C6.26473 27.8627 5.3429 27.5789 4.41123 27.6402C3.61765 27.64 2.82615 27.7219 2.04912 27.8844L0 38.6054Z" fill="#333333"/>
</g>
<defs>
<clipPath id="clip0_5736_2604">
<rect width="91" height="57" fill="white"/>
</clipPath>
</defs>
</svg>
