<svg width="238" height="40" viewBox="0 0 238 40" fill="none" xmlns="http://www.w3.org/2000/svg">
<g id="Group 142">
<g id="&#208;&#158; &#208;&#188;&#208;&#176;&#208;&#179;&#208;&#176;&#208;&#183;&#208;&#184;&#208;&#189;&#208;&#181;">
<g id="icons hover">
<g id="&#209;&#130;&#208;&#178;&#208;&#184;&#209;&#130;&#209;&#130;&#208;&#181;&#209;&#128;">
<rect id="Rectangle 19" x="66.293" width="39.1232" height="39.1232" fill="#ECECEC"/>
<path id="XMLID 1450" d="M77.0527 25.735C78.7554 26.7728 80.75 27.3861 82.8905 27.3861C89.9931 27.3861 93.9822 21.5836 93.739 16.3944C94.4687 15.8755 95.1498 15.2151 95.6363 14.4603C94.9552 14.7433 94.2255 14.932 93.4471 15.0264C94.2255 14.5546 94.8579 13.847 95.1011 12.9979C94.3714 13.4225 93.5444 13.7527 92.6687 13.8942C91.9877 13.1866 90.9661 12.7148 89.8958 12.7148C87.4148 12.7148 85.6148 14.932 86.1986 17.2436C83.0364 17.1021 80.2149 15.6397 78.3176 13.3753C77.296 15.0264 77.7825 17.1964 79.4851 18.3286C78.8527 18.3286 78.2689 18.1399 77.7338 17.8568C77.6852 19.5551 78.95 21.159 80.7986 21.5364C80.2635 21.678 79.6797 21.7251 79.096 21.5836C79.5824 23.046 80.9932 24.131 82.6473 24.131C81.0905 25.4047 79.096 25.9708 77.0527 25.735Z" fill="#29A9E1"/>
</g>
<g id="&#209;&#132;&#208;&#181;&#208;&#185;&#209;&#129;&#208;&#177;&#209;&#131;&#208;&#186;">
<rect id="Rectangle 18" width="39.1232" height="39.1232" fill="#ECECEC"/>
<path id="XMLID 1420" d="M16.8817 31.3006H21.1577V19.949H24.1558L24.4507 16.1651H21.1577C21.1577 16.1651 21.1577 14.7656 21.1577 13.9881C21.1577 13.1069 21.3051 12.7441 22.1407 12.7441C22.7796 12.7441 24.4507 12.7441 24.4507 12.7441V8.80469C24.4507 8.80469 21.9932 8.80469 21.5017 8.80469C18.307 8.80469 16.8817 10.3079 16.8817 13.1069C16.8817 15.5949 16.8817 16.1133 16.8817 16.1133H14.6699V19.949H16.8817V31.3006Z" fill="#3E5C9A"/>
</g>
<g id="&#208;&#178;&#208;&#186;">
<rect id="Rectangle 20" x="132.584" width="39.1232" height="39.1232" fill="#ECECEC"/>
<path id="Vector" fill-rule="evenodd" clip-rule="evenodd" d="M163.705 13.6845C163.422 13.4856 162.329 13.4856 161.276 13.4856C160.183 13.5254 159.089 13.5254 158.846 13.6049C158.604 13.6845 158.077 14.9177 157.429 16.2305C156.66 17.6626 155.688 19.0549 155.121 19.0549C154.352 19.0549 154.514 16.7078 154.595 14.9177C154.595 13.7641 154.433 13.406 154.231 13.2867C153.826 13.0082 152.692 12.7298 152.692 12.7298C152.692 12.7298 149.291 12.4911 148.805 13.9232C149.453 14.0027 150.587 13.8038 150.141 18.2593C150.101 18.4582 149.615 20.3279 148.036 17.8217C147.631 17.1852 146.133 13.4856 145.606 13.4458C143.865 13.406 142.124 13.3265 141.517 13.6447C140.95 13.963 142.286 16.5089 144.513 19.9301C146.335 22.7545 148.238 24.9424 151.558 25.4596C152.206 25.5391 153.826 25.5789 154.352 25.3402C154.676 25.1811 154.271 22.7545 155.445 22.5158C155.972 22.4362 157.996 25.0618 158.765 25.3402C159.251 25.5391 160.264 25.6187 161.316 25.5391C162.45 25.4994 163.746 25.6585 163.867 24.9026C164.151 23.2319 160.426 21.0439 160.345 20.0096C160.264 19.2538 161.681 17.9013 162.45 16.867C163.26 15.7133 164.272 14.1619 163.705 13.6845Z" fill="#4A76A8"/>
</g>
<g id="Group 78">
<rect id="Rectangle 21" x="198.877" width="39.1232" height="39.1232" fill="#ECECEC"/>
<g id="Vector_2">
<path d="M218.275 12.4261C220.57 12.4261 220.83 12.4261 221.696 12.4694C222.519 12.5127 222.995 12.6427 223.298 12.7726C223.688 12.9458 223.991 13.119 224.294 13.4221C224.597 13.7253 224.771 13.9851 224.944 14.4181C225.074 14.7213 225.204 15.1543 225.247 16.0204C225.29 16.9298 225.29 17.1896 225.29 19.4414C225.29 21.7365 225.29 21.9964 225.247 22.8625C225.204 23.6852 225.074 24.1616 224.944 24.4647C224.771 24.8544 224.597 25.1576 224.294 25.4607C223.991 25.7638 223.731 25.9371 223.298 26.1103C222.995 26.2402 222.562 26.3701 221.696 26.4134C220.787 26.4567 220.527 26.4567 218.275 26.4567C215.98 26.4567 215.72 26.4567 214.854 26.4134C214.031 26.3701 213.555 26.2402 213.252 26.1103C212.862 25.9371 212.559 25.7638 212.256 25.4607C211.953 25.1576 211.779 24.8978 211.606 24.4647C211.476 24.1616 211.346 23.7285 211.303 22.8625C211.26 21.9531 211.26 21.6932 211.26 19.4414C211.26 17.1463 211.26 16.8865 211.303 16.0204C211.346 15.1976 211.476 14.7213 211.606 14.4181C211.779 14.0284 211.953 13.7253 212.256 13.4221C212.559 13.119 212.819 12.9458 213.252 12.7726C213.555 12.6427 213.988 12.5127 214.854 12.4694C215.763 12.4261 216.023 12.4261 218.275 12.4261ZM218.275 10.8672C215.98 10.8672 215.677 10.8672 214.767 10.9105C213.858 10.9538 213.252 11.0837 212.689 11.3002C212.126 11.5168 211.65 11.8199 211.173 12.2962C210.697 12.7726 210.394 13.2489 210.177 13.8119C209.961 14.3748 209.831 14.9811 209.787 15.8905C209.744 16.7999 209.744 17.103 209.744 19.3981C209.744 21.6932 209.744 21.9964 209.787 22.9058C209.831 23.8151 209.961 24.4214 210.177 24.9844C210.394 25.5473 210.697 26.0237 211.173 26.5C211.65 26.9764 212.126 27.2795 212.689 27.496C213.252 27.7125 213.858 27.8424 214.767 27.8857C215.677 27.9291 215.98 27.929 218.275 27.929C220.57 27.929 220.873 27.9291 221.783 27.8857C222.692 27.8424 223.298 27.7125 223.861 27.496C224.424 27.2795 224.901 26.9764 225.377 26.5C225.853 26.0237 226.156 25.5473 226.373 24.9844C226.589 24.4214 226.719 23.8151 226.763 22.9058C226.806 21.9964 226.806 21.6932 226.806 19.3981C226.806 17.103 226.806 16.7999 226.763 15.8905C226.719 14.9811 226.589 14.3748 226.373 13.8119C226.156 13.2489 225.853 12.7726 225.377 12.2962C224.901 11.8199 224.424 11.5168 223.861 11.3002C223.298 11.0837 222.692 10.9538 221.783 10.9105C220.917 10.8672 220.614 10.8672 218.275 10.8672Z" fill="#AD2131"/>
<path d="M218.275 15.0244C215.85 15.0244 213.901 16.9731 213.901 19.3982C213.901 21.8232 215.85 23.7719 218.275 23.7719C220.7 23.7719 222.649 21.8232 222.649 19.3982C222.649 16.9731 220.7 15.0244 218.275 15.0244ZM218.275 22.2129C216.716 22.2129 215.417 20.9571 215.417 19.3549C215.417 17.7959 216.673 16.4968 218.275 16.4968C219.834 16.4968 221.133 17.7526 221.133 19.3549C221.133 20.9571 219.877 22.2129 218.275 22.2129Z" fill="#AD2131"/>
<path d="M223.861 14.8512C223.861 15.4142 223.385 15.8905 222.822 15.8905C222.259 15.8905 221.783 15.4142 221.783 14.8512C221.783 14.2882 222.259 13.8119 222.822 13.8119C223.385 13.8119 223.861 14.2882 223.861 14.8512Z" fill="#AD2131"/>
</g>
</g>
</g>
<g id="icons">
<g id="&#209;&#130;&#208;&#178;&#208;&#184;&#209;&#130;&#209;&#130;&#208;&#181;&#209;&#128;_2">
<path id="XMLID 1450_2" d="M77.0527 25.735C78.7554 26.7728 80.75 27.3861 82.8905 27.3861C89.9931 27.3861 93.9822 21.5836 93.739 16.3944C94.4687 15.8755 95.1498 15.2151 95.6363 14.4603C94.9552 14.7433 94.2255 14.932 93.4471 15.0264C94.2255 14.5546 94.8579 13.847 95.1011 12.9979C94.3714 13.4225 93.5444 13.7527 92.6687 13.8942C91.9877 13.1866 90.9661 12.7148 89.8958 12.7148C87.4148 12.7148 85.6148 14.932 86.1986 17.2436C83.0364 17.1021 80.2149 15.6397 78.3176 13.3753C77.296 15.0264 77.7825 17.1964 79.4851 18.3286C78.8527 18.3286 78.2689 18.1399 77.7338 17.8568C77.6852 19.5551 78.95 21.159 80.7986 21.5364C80.2635 21.678 79.6797 21.7251 79.096 21.5836C79.5824 23.046 80.9932 24.131 82.6473 24.131C81.0905 25.4047 79.096 25.9708 77.0527 25.735Z" fill="#AD2131"/>
</g>
<g id="&#209;&#132;&#208;&#181;&#208;&#185;&#209;&#129;&#208;&#177;&#209;&#131;&#208;&#186;_2">
<path id="XMLID 1420_2" d="M16.8817 31.3006H21.1577V19.949H24.1558L24.4507 16.1651H21.1577C21.1577 16.1651 21.1577 14.7656 21.1577 13.9881C21.1577 13.1069 21.3051 12.7441 22.1407 12.7441C22.7796 12.7441 24.4507 12.7441 24.4507 12.7441V8.80469C24.4507 8.80469 21.9932 8.80469 21.5017 8.80469C18.307 8.80469 16.8817 10.3079 16.8817 13.1069C16.8817 15.5949 16.8817 16.1133 16.8817 16.1133H14.6699V19.949H16.8817V31.3006Z" fill="#AD2131"/>
</g>
<g id="&#208;&#178;&#208;&#186;_2">
<path id="Vector_3" fill-rule="evenodd" clip-rule="evenodd" d="M163.705 13.6845C163.422 13.4856 162.329 13.4856 161.276 13.4856C160.183 13.5254 159.089 13.5254 158.846 13.6049C158.604 13.6845 158.077 14.9177 157.429 16.2305C156.66 17.6626 155.688 19.0549 155.121 19.0549C154.352 19.0549 154.514 16.7078 154.595 14.9177C154.595 13.7641 154.433 13.406 154.231 13.2867C153.826 13.0082 152.692 12.7298 152.692 12.7298C152.692 12.7298 149.291 12.4911 148.805 13.9232C149.453 14.0027 150.587 13.8038 150.141 18.2593C150.101 18.4582 149.615 20.3279 148.036 17.8217C147.631 17.1852 146.133 13.4856 145.606 13.4458C143.865 13.406 142.124 13.3265 141.517 13.6447C140.95 13.963 142.286 16.5089 144.513 19.9301C146.335 22.7545 148.238 24.9424 151.558 25.4596C152.206 25.5391 153.826 25.5789 154.352 25.3402C154.676 25.1811 154.271 22.7545 155.445 22.5158C155.972 22.4362 157.996 25.0618 158.765 25.3402C159.251 25.5391 160.264 25.6187 161.316 25.5391C162.45 25.4994 163.746 25.6585 163.867 24.9026C164.151 23.2319 160.426 21.0439 160.345 20.0096C160.264 19.2538 161.681 17.9013 162.45 16.867C163.26 15.7133 164.272 14.1619 163.705 13.6845Z" fill="#AD2131"/>
</g>
</g>
</g>
</g>
</svg>
