<svg width="30" height="30" viewBox="0 0 30 30" fill="none" xmlns="http://www.w3.org/2000/svg">
<g id="icon">
<path id="icon menu" fill-rule="evenodd" clip-rule="evenodd" d="M1.50472 7.31224C1.50472 6.84639 1.88236 6.46875 2.34821 6.46875H27.6529C28.1187 6.46875 28.4964 6.84639 28.4964 7.31224C28.4964 7.77808 28.1187 8.15573 27.6529 8.15573H2.34821C1.88236 8.15573 1.50472 7.77808 1.50472 7.31224ZM1.50446 14.9993C1.50446 14.5334 1.8821 14.1558 2.34794 14.1558H27.6526C28.1185 14.1558 28.4961 14.5334 28.4961 14.9993C28.4961 15.4651 28.1185 15.8427 27.6526 15.8427H2.34794C1.8821 15.8427 1.50446 15.4651 1.50446 14.9993ZM2.34794 21.8428C1.8821 21.8428 1.50446 22.2204 1.50446 22.6863C1.50446 23.1521 1.8821 23.5298 2.34794 23.5298H27.6526C28.1185 23.5298 28.4961 23.1521 28.4961 22.6863C28.4961 22.2204 28.1185 21.8428 27.6526 21.8428H2.34794Z" fill="white"/>
</g>
</svg>
